<svg width="283" height="279" viewBox="0 0 283 279" fill="none" xmlns="http://www.w3.org/2000/svg">
<path d="M0.5 22C0.5 9.84974 10.3497 0 22.5 0H75.5C87.6503 0 97.5 9.84974 97.5 22V257C97.5 269.15 87.6503 279 75.5 279H22.5C10.3497 279 0.5 269.15 0.5 257V22Z" fill="url(#paint0_linear_2002_81)"/>
<path d="M81.9153 106.71C90.4213 98.0336 104.35 97.8956 113.026 106.402L270.974 261.248C275.058 265.253 275.123 271.809 271.119 275.894C269.171 277.881 266.506 279 263.724 279H176.012C170.253 279 164.724 276.742 160.611 272.71L53.2094 167.416C44.5331 158.91 44.395 144.981 52.901 136.305L81.9153 106.71Z" fill="url(#paint1_linear_2002_81)"/>
<path d="M97.1763 210C97.2388 217.219 97.2866 224.437 97.3158 231.656C97.3298 235.009 97.3488 238.361 97.3794 241.713C97.4087 244.951 97.4247 248.188 97.4317 251.426C97.4366 252.659 97.4463 253.891 97.4609 255.124C97.4806 256.856 97.4816 258.588 97.4819 260.32C97.4909 261.796 97.4909 261.796 97.5 263.303C96.9588 267.954 95.0267 271.488 91.4564 274.452C90.9498 274.886 90.4432 275.319 89.9213 275.766C86.0633 278.402 82.6747 278.976 78.0622 278.983C76.9396 278.988 75.8169 278.994 74.6602 279C73.4432 278.997 72.2262 278.993 71.0092 278.989C69.7547 278.99 68.5003 278.992 67.2458 278.994C64.6227 278.997 61.9997 278.993 59.3766 278.984C56.0145 278.974 52.6527 278.98 49.2906 278.991C46.7028 278.998 44.1151 278.995 41.5273 278.991C40.2874 278.99 39.0475 278.991 37.8076 278.995C36.0767 279 34.3459 278.992 32.615 278.983C31.6303 278.981 30.6457 278.98 29.6312 278.978C27.1917 278.749 27.1917 278.749 24.5 276.939C31.9101 269.912 39.3357 262.906 46.8468 255.989C50.2021 252.892 53.53 249.764 56.8567 246.636C57.4345 246.093 58.0122 245.55 58.6075 244.991C59.1505 244.479 59.6934 243.968 60.2528 243.441C60.7341 242.988 61.2153 242.535 61.7111 242.069C62.6671 241.153 63.5923 240.204 64.4917 239.231C65.773 238.042 65.773 238.042 67.5674 238.042C67.5674 237.445 67.5674 236.848 67.5674 236.233C68.1596 236.233 68.7518 236.233 69.3619 236.233C69.3619 235.636 69.3619 235.039 69.3619 234.424C70.658 233.122 70.6581 233.122 72.4637 231.608C77.2521 227.503 81.7771 223.141 86.3271 218.772C95.508 210 95.508 210 97.1763 210Z" fill="url(#paint2_linear_2002_81)"/>
<path d="M6.73439 272.372C2.74187 268.367 0.5 262.942 0.5 257.286L0.5 197.252C0.5 191.405 2.82775 185.798 6.96913 181.67L182.521 6.69215C186.632 2.59451 192.196 0.287598 198 0.274005L263.276 0.121134C268.435 0.109052 273.386 2.15751 277.028 5.81153C284.573 13.3813 284.553 25.6342 276.983 33.1792L36.9559 272.422C28.5968 280.754 15.0662 280.732 6.73439 272.372Z" fill="url(#paint3_linear_2002_81)"/>
<path d="M0.49969 121C0.498682 129.5 0.4 131.6 0 198C14.4717 173.875 21.5 167 33 156C19.5 144.5 12.4716 137.156 0.49969 121Z" fill="#8EB897"/>
<defs>
<linearGradient id="paint0_linear_2002_81" x1="49" y1="279" x2="49" y2="0" gradientUnits="userSpaceOnUse">
<stop stop-color="#040403"/>
<stop offset="0.9999" stop-color="#5B7553"/>
</linearGradient>
<linearGradient id="paint1_linear_2002_81" x1="68.2122" y1="182.125" x2="106.977" y2="289.281" gradientUnits="userSpaceOnUse">
<stop offset="0.4375" stop-color="#5B7553"/>
<stop offset="1" stop-color="#9DDBAD"/>
</linearGradient>
<linearGradient id="paint2_linear_2002_81" x1="61" y1="210" x2="61" y2="279" gradientUnits="userSpaceOnUse">
<stop stop-color="#040403"/>
<stop offset="1" stop-color="#5B7553"/>
</linearGradient>
<linearGradient id="paint3_linear_2002_81" x1="-64.999" y1="309" x2="115.455" y2="384.3" gradientUnits="userSpaceOnUse">
<stop stop-color="#5B7553"/>
<stop offset="0.548077" stop-color="#C3E8BD"/>
<stop offset="1" stop-color="#9DDBAD"/>
</linearGradient>
</defs>
</svg>
